<svg width="200" height="200" xmlns="http://www.w3.org/2000/svg" viewBox="0 0 100 100" preserveAspectRatio="xMidYMid" class="lds-colorbar"><defs><clipPath id="a"><path d="M81.3 58.7H18.7c-4.8 0-8.7-3.9-8.7-8.7 0-4.8 3.9-8.7 8.7-8.7h62.7c4.8 0 8.7 3.9 8.7 8.7-.1 4.8-4 8.7-8.8 8.7z"/></clipPath></defs><path fill="none" stroke-width="2.793" d="M82 63H18c-7.2 0-13-5.8-13-13s5.8-13 13-13h64c7.2 0 13 5.8 13 13s-5.8 13-13 13z" stroke="#ffd54f"/><g clip-path="url(#a)"><g transform="translate(99.514)"><path fill="#1aafd0" d="M-100 0h25v100h-25z"/><path fill="#6a67ce" d="M-75 0h25v100h-25z"/><path fill="#ffb900" d="M-50 0h25v100h-25z"/><path fill="#fc636b" d="M-25 0H0v100h-25z"/><path fill="#1aafd0" d="M0 0h25v100H0z"/><path fill="#6a67ce" d="M25 0h25v100H25z"/><path fill="#ffb900" d="M50 0h25v100H50z"/><path fill="#fc636b" d="M75 0h25v100H75z"/><animateTransform attributeName="transform" type="translate" calcMode="linear" values="0;100" keyTimes="0;1" dur="1s" begin="0s" repeatCount="indefinite"/></g></g></svg>